<svg width="36" height="26" viewBox="0 0 36 26" fill="none" xmlns="http://www.w3.org/2000/svg">
<path d="M35.1095 0.943115L34.0257 3.72089H31.2119L26.1445 20.3876H6.83291L0.101074 5.10978H24.6245L23.8018 7.88756H4.4888L8.77296 17.6098H23.9841L28.9904 0.943115H35.1095ZM12.4999 21.7764C11.2921 21.7764 10.3119 22.7098 10.3119 23.8598C10.3119 25.0112 11.2921 25.9431 12.4999 25.9431C13.7077 25.9431 14.6879 25.0112 14.6879 23.8598C14.6879 22.7098 13.7077 21.7764 12.4999 21.7764ZM22.5648 12.0542L19.7933 21.7764C18.5855 21.7764 17.6053 22.7084 17.6053 23.8598C17.6053 25.0112 18.5855 25.9431 19.7933 25.9431C21.0011 25.9431 21.9814 25.0112 21.9814 23.8598C21.9814 22.7098 21.0011 21.7764 19.7933 21.7764L22.5648 12.0542Z" fill="#2F3035"/>
</svg>
