<svg width="25" height="25" viewBox="0 0 25 25" fill="none" xmlns="http://www.w3.org/2000/svg">
<path d="M12.5 9.35108C12.7437 8.07835 14.1115 2.27265 18.1062 2.27265C20.4187 2.27265 22.9167 4.03515 22.9167 7.95789C22.9167 12.3977 19.1385 17.5829 12.5 22.3091C5.86146 17.5829 2.08333 12.3977 2.08333 7.95789C2.08333 3.99879 4.55104 2.27037 6.85104 2.27037C10.9375 2.27037 12.2104 8.0954 12.5 9.35108ZM0 7.95789C0 12.5806 3.1875 18.7318 12.5 25C21.8125 18.7318 25 12.5806 25 7.95789C25 -1.08986 14.95 -2.30123 12.5 3.71129C10.0646 -2.26828 0 -1.141 0 7.95789Z" fill="#2F3035"/>
</svg>
